<?xml version="1.0" encoding="UTF-8"?>
<!DOCTYPE svg PUBLIC "-//W3C//DTD SVG 1.1//EN" "http://www.w3.org/Graphics/SVG/1.1/DTD/svg11.dtd">
<svg width="223px" height="171px" viewBox="0 0 223 171" version="1.1" xmlns="http://www.w3.org/2000/svg" xmlns:xlink="http://www.w3.org/1999/xlink" xml:space="preserve" xmlns:serif="http://www.serif.com/" style="fill-rule:evenodd;clip-rule:evenodd;stroke-linejoin:round;stroke-miterlimit:1.41421;">
    <g>
        <path d="M55.073,126.68c-5.359,0 -8.958,-4.395 -8.958,-10.942c0,-6.547 3.599,-10.944 8.958,-10.944c5.358,0 8.959,4.397 8.959,10.944c0,6.547 -3.601,10.942 -8.959,10.942Zm0,-24.453c-9.151,0 -12.397,7.276 -12.397,13.511c0,6.232 3.246,13.51 12.397,13.51c9.152,0 12.398,-7.278 12.398,-13.51c0,-6.235 -3.246,-13.511 -12.398,-13.511Z" style="fill:#fff;fill-rule:nonzero;"/>
        <path d="M73.421,106.971l0,-4.232l-2.916,0l0.003,25.798l3.122,0l0,-12.745l-0.006,-0.165c0.006,-4.753 1.352,-10.434 7.766,-10.434l0.975,0.046l0.013,-0.101l0.155,-3.009l-0.362,-0.002c-4.333,0 -7.269,1.636 -8.75,4.844Z" style="fill:#fff;fill-rule:nonzero;"/>
        <path d="M136.862,107.768c-2.151,-0.71 -3.725,-1.121 -6.297,-1.121c-1.89,0 -4.144,0.664 -4.144,2.905c0,4.18 12.225,1.53 12.225,11.001c0,6.117 -5.615,8.564 -11.333,8.564c-2.68,0 -5.407,-0.457 -7.977,-1.12l0.419,-5.607c2.203,1.069 4.512,1.733 6.924,1.733c1.787,0 4.621,-0.664 4.621,-3.209c0,-5.146 -12.227,-1.631 -12.227,-11.107c0,-5.653 5.09,-8.153 10.599,-8.153c3.307,0 5.46,0.512 7.662,0.97l-0.472,5.144Z" style="fill:#fff;fill-rule:nonzero;"/>
        <rect x="169.606" y="102.298" width="7.034" height="26.24" style="fill:#fff;fill-rule:nonzero;"/>
        <path d="M220.62,107.768c-2.151,-0.71 -3.725,-1.121 -6.297,-1.121c-1.891,0 -4.145,0.664 -4.145,2.905c0,4.18 12.224,1.53 12.224,11.001c0,6.117 -5.612,8.564 -11.333,8.564c-2.677,0 -5.404,-0.457 -7.976,-1.12l0.42,-5.607c2.203,1.069 4.513,1.733 6.926,1.733c1.785,0 4.619,-0.664 4.619,-3.209c0,-5.146 -12.227,-1.631 -12.227,-11.107c0,-5.653 5.09,-8.153 10.602,-8.153c3.304,0 5.454,0.512 7.659,0.97l-0.472,5.144Z" style="fill:#fff;fill-rule:nonzero;"/>
        <path d="M155.87,114.059l9.962,-11.761l-8.292,0l-8.394,10.497l-0.106,0l0,-24.614l-7.032,2.148l0,38.209l7.032,0l0,-12.738l0.106,0l9.027,12.738l8.919,0l-11.222,-14.479Z" style="fill:#fff;fill-rule:nonzero;"/>
        <path d="M103.843,126.582c-7.233,0 -8.016,-7.653 -8.016,-10.943c0,-3.292 0.783,-10.944 8.016,-10.944c5.538,0 8.018,5.495 8.018,10.944c0,5.448 -2.48,10.943 -8.018,10.943Zm11.013,-36.961l-2.995,0.917l0,15.949c-0.652,-1.091 -3.088,-4.428 -8.543,-4.36c-9.031,0.114 -10.927,7.409 -10.927,13.512c0,8.332 4.187,13.512 10.928,13.512c4.015,0 6.73,-1.48 8.542,-4.614l0,4.001l3.121,0l0,-38.956l-0.126,0.039Z" style="fill:#fff;fill-rule:nonzero;"/>
        <path d="M88.786,89.623l-2.996,0.913l0,38.002l3.123,0l0,-38.956l-0.127,0.041Z" style="fill:#fff;fill-rule:nonzero;"/>
        <path d="M181.176,90.329l0,38.209l7.031,0l0,-40.358l-7.031,2.149Z" style="fill:#fff;fill-rule:nonzero;"/>
        <path d="M192.258,90.329l-0.004,0l0,38.209l7.034,0l0,-40.358l-7.03,2.149Z" style="fill:#fff;fill-rule:nonzero;"/>
        <path d="M177.187,92.504c0,-2.165 -1.756,-3.917 -3.917,-3.917c-2.161,0 -3.915,1.752 -3.915,3.917c0,2.163 1.754,3.917 3.915,3.917c2.161,0 3.917,-1.754 3.917,-3.917Z" style="fill:#fff;fill-rule:nonzero;"/>
        <path d="M6.154,102.739l-3.352,0l0.042,0.129c0.161,0.486 8.403,25.375 8.48,25.601l0.022,0.069l3.856,0c0,0 7.249,-22.333 7.293,-22.469l0.239,0c0.045,0.136 7.294,22.469 7.294,22.469l3.857,0l8.753,-25.799l-3.112,0c0,0 -7.354,22.334 -7.4,22.467l-0.239,0c-0.042,-0.134 -7.082,-22.467 -7.082,-22.467l-3.857,0c0,0 -7.406,22.334 -7.452,22.467l-0.238,0c-0.042,-0.137 -7.031,-22.467 -7.031,-22.467l-0.073,0Z" style="fill:#fff;fill-rule:nonzero;"/>
        <path d="M163.301,45.233c0,0 12.347,-2.186 16.389,-12.002c0,0 71.891,14.725 29.452,53.074c0,0 15.749,-14.828 6.953,-26.691c0,0 4.909,14.726 -14.317,24.645c0,0 41.696,-29.617 -38.477,-39.026Z" style="fill:#fff;fill-rule:nonzero;"/>
        <path d="M202.691,39.862c5.028,2.487 8.547,4.931 10.604,6.536c0.904,-25.738 -17.55,-40.127 -17.55,-40.127c-0.536,1.649 -2.147,3.49 -4.448,4.333c-2.301,0.844 -3.683,3.605 -3.683,3.605c9.02,7.501 13.352,16.659 15.077,25.653Z" style="fill:#fff;fill-rule:nonzero;"/>
        <path d="M177.781,35.054c1.09,-1.627 1.395,-2.744 1.395,-2.744c4.752,0.844 9.016,1.957 12.813,3.202c-7.877,-22.459 -22.525,-34.751 -22.525,-34.751c-0.409,1.177 -4.704,3.324 -7.619,4.603c-2.914,1.278 -2.148,6.698 -2.148,6.698c8.011,6.619 13.839,14.721 18.084,22.992Z" style="fill:#fff;fill-rule:nonzero;"/>
        <path d="M207.918,59.932c-0.991,11.081 -7.571,22.844 -7.571,22.844c4.645,-7.066 7.822,-13.701 9.875,-19.883c-0.576,-1.045 -1.354,-2.031 -2.304,-2.961Z" style="fill:#fff;fill-rule:nonzero;"/>
        <path d="M207.056,59.145c-1.084,-0.932 -2.337,-1.804 -3.726,-2.621c-1.154,11.922 -5.131,20.884 -5.131,20.884c2.301,-2.608 4.065,-6.826 4.065,-6.826c0.077,2.991 -2.378,8.897 -2.378,8.897c4.222,-6.783 6.242,-15.026 7.17,-20.334Z" style="fill:#fff;fill-rule:nonzero;"/>
        <path d="M182.105,82.358c-2.556,-1.377 -6.263,-2.841 -13.881,-8.741c5.765,4.341 15.393,7.114 15.393,7.114c-21.256,-10.789 -25.889,-20.569 -25.889,-20.569c-2.046,-0.066 -3.28,1.232 -4.089,1.676c-0.811,0.445 -3.022,0.407 -3.022,0.407c8.102,13.061 31.488,20.113 31.488,20.113Z" style="fill:#fff;fill-rule:nonzero;"/>
        <path d="M172.596,47.2c-7.063,-1.17 -12.249,-1.622 -12.249,-1.622c2.823,-0.709 5.224,-1.571 7.279,-2.509c-9.939,-7.239 -19.843,-9.021 -19.843,-9.021c0,0 -1.84,0.613 -2.096,3.682c-0.254,3.067 -2.607,3.477 -2.607,3.477c37.121,9.919 42.694,40.495 42.694,40.495c-2.532,-13.805 -7.9,-22.625 -7.9,-22.625c5.676,5.829 9.587,20.632 9.587,20.632c-1.259,-15.301 -7.604,-25.618 -14.865,-32.509Z" style="fill:#fff;fill-rule:nonzero;"/>
        <path d="M183.704,49.412c5.345,16.488 5.446,30.449 5.446,30.449c3.955,-7.668 2.914,-25.309 2.914,-25.309c3.681,7.209 3.221,26.844 3.221,26.844c1.888,-10.318 1.961,-19.753 0.878,-28.245c-3.92,-1.503 -8.228,-2.736 -12.459,-3.739Z" style="fill:#fff;fill-rule:nonzero;"/>
        <path d="M8.735,157.626l15.581,0l-7.795,-19.876l-7.786,19.876Zm6.03,-23.285l4.027,0l14.301,36.037l-3.717,0l-3.872,-9.655l-18.101,0l-3.841,9.655l-3.562,0l14.765,-36.037Z" style="fill:#fff;fill-rule:nonzero;"/>
        <path d="M36.345,146.836l-5.317,0l0,-2.789l5.317,0l0,-1.91c0,-1.41 0.069,-2.787 0.206,-4.13c0.069,-1.307 0.327,-2.478 0.775,-3.51c0.447,-1.067 1.153,-1.91 2.117,-2.53c0.929,-0.62 2.22,-0.929 3.872,-0.929c0.55,0 1.118,0.018 1.704,0.051c0.584,0.103 1.032,0.258 1.342,0.465l-0.207,2.787c-0.723,-0.343 -1.583,-0.515 -2.581,-0.515c-1.067,0 -1.877,0.241 -2.427,0.722c-0.585,0.551 -0.98,1.222 -1.187,2.014c-0.206,0.792 -0.31,1.635 -0.31,2.529c-0.035,0.93 -0.051,1.826 -0.051,2.685l0,2.271l5.937,0l0,2.789l-5.937,0l0,23.542l-3.253,0l0,-23.542Z" style="fill:#fff;fill-rule:nonzero;"/>
        <path d="M48.033,149.933c0,-2.443 -0.069,-4.405 -0.207,-5.886l3.253,0l0,5.06l0.103,0c0.62,-1.549 1.497,-2.873 2.634,-3.975c1.101,-1.101 2.478,-1.669 4.13,-1.704c0.859,0.035 1.617,0.138 2.271,0.31l0,3.407c-0.723,-0.206 -1.515,-0.309 -2.375,-0.309c-1.273,0.034 -2.323,0.344 -3.149,0.929c-0.826,0.619 -1.497,1.463 -2.014,2.53c-0.482,1.033 -0.825,2.151 -1.032,3.356c-0.241,1.273 -0.361,2.513 -0.361,3.717l0,13.01l-3.253,0l0,-20.445Z" style="fill:#fff;fill-rule:nonzero;"/>
        <path d="M62.282,144.047l3.252,0l0,26.331l-3.252,0l0,-26.331Zm3.252,-7.02l-3.252,0l0,-4.337l3.252,0l0,4.337Z" style="fill:#fff;fill-rule:nonzero;"/>
        <path d="M87.935,147.558c-1.859,-0.859 -3.735,-1.307 -5.628,-1.342c-3.167,0.035 -5.593,1.05 -7.279,3.046c-1.755,2.032 -2.633,4.681 -2.633,7.95c0,3.065 0.86,5.628 2.581,7.693c1.686,2.169 4.01,3.27 6.97,3.305c2.03,0 4.009,-0.396 5.937,-1.188l0.31,3.098c-2.134,0.619 -4.388,0.911 -6.763,0.878c-4.234,-0.07 -7.383,-1.463 -9.448,-4.182c-2.1,-2.65 -3.149,-5.852 -3.149,-9.604c0.033,-4.164 1.239,-7.485 3.613,-9.963c2.341,-2.512 5.473,-3.786 9.397,-3.821c1.617,0 2.959,0.121 4.027,0.362c0.55,0.102 1.033,0.206 1.446,0.309c0.378,0.138 0.671,0.258 0.877,0.362l-0.258,3.097Z" style="fill:#fff;fill-rule:nonzero;"/>
        <path d="M105.963,157.11l-0.929,0c-1.412,0 -2.823,0.034 -4.234,0.102c-1.48,0.139 -2.823,0.431 -4.027,0.878c-1.205,0.413 -2.169,1.051 -2.891,1.911c-0.792,0.86 -1.188,2.013 -1.188,3.459c0,1.686 0.55,2.891 1.652,3.614c1.033,0.757 2.306,1.136 3.821,1.136c1.893,0 3.39,-0.379 4.492,-1.136c1.066,-0.723 1.841,-1.583 2.323,-2.582c0.516,-1.067 0.808,-2.116 0.878,-3.149c0.068,-1.066 0.103,-1.944 0.103,-2.633l0,-1.6Zm0.31,9.034l-0.103,0c-0.758,1.549 -1.911,2.736 -3.459,3.563c-1.55,0.826 -3.185,1.255 -4.906,1.291c-1.824,-0.036 -3.304,-0.328 -4.44,-0.878c-1.17,-0.517 -2.065,-1.17 -2.684,-1.962c-1.102,-1.721 -1.618,-3.253 -1.549,-4.595c0,-2.202 0.533,-3.94 1.6,-5.215c1.033,-1.272 2.358,-2.184 3.976,-2.736c1.617,-0.584 3.372,-0.963 5.266,-1.136c1.859,-0.102 3.648,-0.154 5.369,-0.154l0.62,0l0,-1.343c0.103,-4.509 -1.894,-6.763 -5.989,-6.763c-2.719,-0.034 -5.301,0.689 -7.744,2.168l0,-3.097c2.443,-1.168 5.025,-1.788 7.744,-1.859c6.229,-0.068 9.31,3.2 9.241,9.81l0,11.615c-0.034,1.997 0.052,3.839 0.259,5.525l-3.201,0l0,-4.234Z" style="fill:#fff;fill-rule:nonzero;"/>
    </g>
</svg>
