<?xml version="1.0" encoding="UTF-8"?>
<!DOCTYPE svg PUBLIC "-//W3C//DTD SVG 1.1//EN" "http://www.w3.org/Graphics/SVG/1.1/DTD/svg11.dtd">
<svg width="223px" height="82px" viewBox="0 0 223 83" version="1.1" xmlns="http://www.w3.org/2000/svg" xmlns:xlink="http://www.w3.org/1999/xlink" xml:space="preserve" xmlns:serif="http://www.serif.com/" style="fill-rule:evenodd;clip-rule:evenodd;stroke-linejoin:round;stroke-miterlimit:1.41421;">
    <g>
        <path d="M55.073,38.681c-5.359,0 -8.958,-4.396 -8.958,-10.943c0,-6.546 3.599,-10.944 8.958,-10.944c5.358,0 8.959,4.398 8.959,10.944c0,6.547 -3.601,10.943 -8.959,10.943Zm0,-24.453c-9.151,0 -12.397,7.276 -12.397,13.51c0,6.233 3.246,13.51 12.397,13.51c9.152,0 12.398,-7.277 12.398,-13.51c0,-6.234 -3.246,-13.51 -12.398,-13.51Z" style="fill:#fff;fill-rule:nonzero;"/>
        <path d="M73.421,18.972l0,-4.233l-2.916,0l0.003,25.798l3.122,0l0,-12.745l-0.006,-0.165c0.006,-4.753 1.352,-10.434 7.766,-10.434l0.975,0.046l0.013,-0.1l0.155,-3.009l-0.362,-0.003c-4.333,0 -7.269,1.637 -8.75,4.845Z" style="fill:#fff;fill-rule:nonzero;"/>
        <path d="M136.862,19.769c-2.151,-0.71 -3.725,-1.121 -6.297,-1.121c-1.89,0 -4.144,0.664 -4.144,2.905c0,4.18 12.225,1.529 12.225,11.001c0,6.116 -5.615,8.563 -11.333,8.563c-2.68,0 -5.407,-0.457 -7.977,-1.12l0.419,-5.606c2.203,1.068 4.512,1.732 6.924,1.732c1.787,0 4.621,-0.664 4.621,-3.209c0,-5.145 -12.227,-1.631 -12.227,-11.106c0,-5.654 5.09,-8.154 10.599,-8.154c3.307,0 5.46,0.512 7.662,0.97l-0.472,5.145Z" style="fill:#fff;fill-rule:nonzero;"/>
        <rect x="169.606" y="14.299" width="7.034" height="26.239" style="fill:#fff;fill-rule:nonzero;"/>
        <path d="M220.62,19.769c-2.151,-0.71 -3.725,-1.121 -6.297,-1.121c-1.891,0 -4.145,0.664 -4.145,2.905c0,4.18 12.224,1.529 12.224,11.001c0,6.116 -5.612,8.563 -11.333,8.563c-2.677,0 -5.404,-0.457 -7.976,-1.12l0.42,-5.606c2.203,1.068 4.513,1.732 6.926,1.732c1.785,0 4.619,-0.664 4.619,-3.209c0,-5.145 -12.227,-1.631 -12.227,-11.106c0,-5.654 5.09,-8.154 10.602,-8.154c3.304,0 5.454,0.512 7.659,0.97l-0.472,5.145Z" style="fill:#fff;fill-rule:nonzero;"/>
        <path d="M155.87,26.06l9.962,-11.761l-8.292,0l-8.394,10.497l-0.106,0l0,-24.615l-7.032,2.148l0,38.209l7.032,0l0,-12.737l0.106,0l9.027,12.737l8.919,0l-11.222,-14.478Z" style="fill:#fff;fill-rule:nonzero;"/>
        <path d="M103.843,38.582c-7.233,0 -8.016,-7.652 -8.016,-10.942c0,-3.292 0.783,-10.945 8.016,-10.945c5.538,0 8.018,5.496 8.018,10.945c0,5.447 -2.48,10.942 -8.018,10.942Zm11.013,-36.961l-2.995,0.917l0,15.949c-0.652,-1.09 -3.088,-4.427 -8.543,-4.36c-9.031,0.114 -10.927,7.409 -10.927,13.513c0,8.332 4.187,13.511 10.928,13.511c4.015,0 6.73,-1.479 8.542,-4.614l0,4.001l3.121,0l0,-38.956l-0.126,0.039Z" style="fill:#fff;fill-rule:nonzero;"/>
        <path d="M88.786,1.623l-2.996,0.913l0,38.002l3.123,0l0,-38.956l-0.127,0.041Z" style="fill:#fff;fill-rule:nonzero;"/>
        <path d="M181.176,2.329l0,38.209l7.031,0l0,-40.358l-7.031,2.149Z" style="fill:#fff;fill-rule:nonzero;"/>
        <path d="M192.258,2.329l-0.004,0l0,38.209l7.034,0l0,-40.358l-7.03,2.149Z" style="fill:#fff;fill-rule:nonzero;"/>
        <path d="M177.187,4.504c0,-2.165 -1.756,-3.917 -3.917,-3.917c-2.161,0 -3.915,1.752 -3.915,3.917c0,2.163 1.754,3.917 3.915,3.917c2.161,0 3.917,-1.754 3.917,-3.917Z" style="fill:#fff;fill-rule:nonzero;"/>
        <path d="M6.154,14.739l-3.352,0l0.042,0.129c0.161,0.487 8.403,25.375 8.48,25.602l0.022,0.068l3.856,0c0,0 7.249,-22.333 7.293,-22.469l0.239,0c0.045,0.136 7.294,22.469 7.294,22.469l3.857,0l8.753,-25.799l-3.112,0c0,0 -7.354,22.334 -7.4,22.467l-0.239,0c-0.042,-0.134 -7.082,-22.467 -7.082,-22.467l-3.857,0c0,0 -7.406,22.334 -7.452,22.467l-0.238,0c-0.042,-0.137 -7.031,-22.467 -7.031,-22.467l-0.073,0Z" style="fill:#fff;fill-rule:nonzero;"/>
        <path d="M8.735,69.626l15.581,0l-7.795,-19.876l-7.786,19.876Zm6.03,-23.284l4.027,0l14.301,36.036l-3.717,0l-3.872,-9.654l-18.101,0l-3.841,9.654l-3.562,0l14.765,-36.036Z" style="fill:#fff;fill-rule:nonzero;"/>
        <path d="M36.345,58.836l-5.317,0l0,-2.788l5.317,0l0,-1.91c0,-1.41 0.069,-2.787 0.206,-4.13c0.069,-1.308 0.327,-2.479 0.775,-3.511c0.447,-1.066 1.153,-1.91 2.117,-2.529c0.929,-0.62 2.22,-0.93 3.872,-0.93c0.55,0 1.118,0.018 1.704,0.052c0.584,0.103 1.032,0.258 1.342,0.465l-0.207,2.787c-0.723,-0.344 -1.583,-0.516 -2.581,-0.516c-1.067,0 -1.877,0.242 -2.427,0.723c-0.585,0.551 -0.98,1.222 -1.187,2.014c-0.206,0.792 -0.31,1.634 -0.31,2.529c-0.035,0.93 -0.051,1.825 -0.051,2.685l0,2.271l5.937,0l0,2.788l-5.937,0l0,23.542l-3.253,0l0,-23.542Z" style="fill:#fff;fill-rule:nonzero;"/>
        <path d="M48.033,61.934c0,-2.444 -0.069,-4.406 -0.207,-5.886l3.253,0l0,5.06l0.103,0c0.62,-1.549 1.497,-2.873 2.634,-3.975c1.101,-1.102 2.478,-1.669 4.13,-1.704c0.859,0.035 1.617,0.138 2.271,0.309l0,3.408c-0.723,-0.206 -1.515,-0.31 -2.375,-0.31c-1.273,0.034 -2.323,0.345 -3.149,0.93c-0.826,0.619 -1.497,1.463 -2.014,2.529c-0.482,1.033 -0.825,2.152 -1.032,3.357c-0.241,1.273 -0.361,2.512 -0.361,3.716l0,13.01l-3.253,0l0,-20.444Z" style="fill:#fff;fill-rule:nonzero;"/>
        <path d="M62.282,56.048l3.252,0l0,26.33l-3.252,0l0,-26.33Zm3.252,-7.021l-3.252,0l0,-4.336l3.252,0l0,4.336Z" style="fill:#fff;fill-rule:nonzero;"/>
        <path d="M87.935,59.559c-1.859,-0.86 -3.735,-1.308 -5.628,-1.342c-3.167,0.034 -5.593,1.05 -7.279,3.046c-1.755,2.031 -2.633,4.68 -2.633,7.95c0,3.064 0.86,5.628 2.581,7.692c1.686,2.169 4.01,3.271 6.97,3.305c2.03,0 4.009,-0.395 5.937,-1.187l0.31,3.097c-2.134,0.619 -4.388,0.91 -6.763,0.878c-4.234,-0.069 -7.383,-1.463 -9.448,-4.181c-2.1,-2.651 -3.149,-5.852 -3.149,-9.604c0.033,-4.164 1.239,-7.485 3.613,-9.964c2.341,-2.512 5.473,-3.785 9.397,-3.82c1.617,0 2.959,0.121 4.027,0.361c0.55,0.103 1.033,0.206 1.446,0.31c0.378,0.137 0.671,0.258 0.877,0.361l-0.258,3.098Z" style="fill:#fff;fill-rule:nonzero;"/>
        <path d="M105.963,69.11l-0.929,0c-1.412,0 -2.823,0.035 -4.234,0.103c-1.48,0.139 -2.823,0.431 -4.027,0.878c-1.205,0.413 -2.169,1.051 -2.891,1.91c-0.792,0.86 -1.188,2.014 -1.188,3.459c0,1.687 0.55,2.892 1.652,3.614c1.033,0.757 2.306,1.136 3.821,1.136c1.893,0 3.39,-0.379 4.492,-1.136c1.066,-0.722 1.841,-1.583 2.323,-2.582c0.516,-1.066 0.808,-2.116 0.878,-3.148c0.068,-1.067 0.103,-1.944 0.103,-2.634l0,-1.6Zm0.31,9.035l-0.103,0c-0.758,1.548 -1.911,2.736 -3.459,3.562c-1.55,0.826 -3.185,1.256 -4.906,1.291c-1.824,-0.035 -3.304,-0.328 -4.44,-0.878c-1.17,-0.516 -2.065,-1.17 -2.684,-1.962c-1.102,-1.72 -1.618,-3.253 -1.549,-4.594c0,-2.203 0.533,-3.941 1.6,-5.215c1.033,-1.273 2.358,-2.185 3.976,-2.737c1.617,-0.584 3.372,-0.962 5.266,-1.135c1.859,-0.103 3.648,-0.155 5.369,-0.155l0.62,0l0,-1.342c0.103,-4.509 -1.894,-6.763 -5.989,-6.763c-2.719,-0.034 -5.301,0.688 -7.744,2.168l0,-3.098c2.443,-1.168 5.025,-1.788 7.744,-1.858c6.229,-0.069 9.31,3.2 9.241,9.81l0,11.615c-0.034,1.997 0.052,3.839 0.259,5.524l-3.201,0l0,-4.233Z" style="fill:#fff;fill-rule:nonzero;"/>
    </g>
</svg>
