<?xml version="1.0" encoding="UTF-8"?>
<!DOCTYPE svg PUBLIC "-//W3C//DTD SVG 1.1//EN" "http://www.w3.org/Graphics/SVG/1.1/DTD/svg11.dtd">
<svg width="255px" height="72px" viewBox="0 0 255 72" version="1.1" xmlns="http://www.w3.org/2000/svg" xmlns:xlink="http://www.w3.org/1999/xlink" xml:space="preserve" xmlns:serif="http://www.serif.com/" style="fill-rule:evenodd;clip-rule:evenodd;stroke-linejoin:round;stroke-miterlimit:1.41421;">
    <g>
        <path d="M133.959,49.744l9.735,0l0,2.759l-6.222,0l0,4.315l5.921,0l0,2.76l-5.921,0l0,7.677l-3.513,0l0,-17.511Z" style="fill:#fff;fill-rule:nonzero;"/>
        <path d="M147.853,60.481c0,0.251 0.017,0.502 0.051,0.753c0.033,0.285 0.075,0.552 0.125,0.803c0.1,0.535 0.267,1.02 0.502,1.455c0.251,0.435 0.585,0.778 1.003,1.029c0.402,0.284 0.92,0.426 1.556,0.426c0.652,0 1.195,-0.134 1.63,-0.402c0.418,-0.25 0.753,-0.593 1.004,-1.028c0.251,-0.435 0.418,-0.92 0.502,-1.455c0.083,-0.518 0.125,-1.045 0.125,-1.581c0,-1.036 -0.259,-1.931 -0.777,-2.684c-0.552,-0.753 -1.38,-1.137 -2.484,-1.154c-1.071,0.017 -1.874,0.41 -2.409,1.179c-0.552,0.753 -0.828,1.639 -0.828,2.659Zm-3.512,0.402c0.016,-2.158 0.669,-3.839 1.957,-5.043c1.254,-1.187 2.851,-1.789 4.792,-1.806c1.973,0.017 3.587,0.619 4.842,1.806c1.271,1.204 1.915,2.885 1.932,5.043c0,1.89 -0.586,3.462 -1.757,4.716c-1.17,1.272 -2.843,1.924 -5.017,1.957c-2.141,-0.033 -3.797,-0.685 -4.968,-1.957c-1.188,-1.254 -1.781,-2.826 -1.781,-4.716Z" style="fill:#fff;fill-rule:nonzero;"/>
        <path d="M171.143,67.255l-3.187,0l0,-1.756l-0.05,0c-1.053,1.338 -2.467,2.024 -4.24,2.057c-1.522,-0.017 -2.626,-0.502 -3.311,-1.455c-0.72,-0.936 -1.079,-2.141 -1.079,-3.613l0,-8.153l3.362,0l0,6.899c0,0.184 0.016,0.376 0.05,0.577c0,0.201 0.008,0.41 0.025,0.627c0.033,0.435 0.109,0.845 0.226,1.23c0.15,0.368 0.367,0.669 0.652,0.903c0.301,0.251 0.711,0.376 1.229,0.376c0.619,0 1.129,-0.159 1.531,-0.477c0.384,-0.284 0.677,-0.643 0.878,-1.078c0.234,-0.435 0.384,-0.895 0.451,-1.38c0.067,-0.485 0.101,-0.937 0.101,-1.355l0,-6.322l3.362,0l0,12.92Z" style="fill:#fff;fill-rule:nonzero;"/>
        <path d="M173.375,54.335l3.187,0l0,1.756l0.05,0c1.07,-1.388 2.483,-2.074 4.24,-2.057c1.522,0.017 2.642,0.493 3.361,1.43c0.686,0.937 1.029,2.149 1.029,3.638l0,8.153l-3.362,0l0,-6.899c0,-0.418 -0.008,-0.844 -0.025,-1.28c-0.017,-0.435 -0.1,-0.827 -0.251,-1.179c-0.117,-0.384 -0.326,-0.694 -0.627,-0.928c-0.318,-0.217 -0.744,-0.326 -1.279,-0.326c-0.603,0 -1.088,0.142 -1.456,0.426c-0.368,0.285 -0.669,0.644 -0.903,1.079c-0.217,0.435 -0.368,0.895 -0.451,1.38c-0.1,0.502 -0.151,0.97 -0.151,1.405l0,6.322l-3.362,0l0,-12.92Z" style="fill:#fff;fill-rule:nonzero;"/>
        <path d="M190.275,60.757c-0.017,0.937 0.184,1.857 0.602,2.76c0.217,0.401 0.51,0.736 0.878,1.004c0.351,0.284 0.803,0.426 1.355,0.426c0.585,0 1.062,-0.142 1.43,-0.426c0.384,-0.268 0.685,-0.603 0.903,-1.004c0.234,-0.418 0.401,-0.869 0.502,-1.355c0.084,-0.485 0.125,-0.953 0.125,-1.405c0,-0.969 -0.226,-1.881 -0.677,-2.734c-0.251,-0.418 -0.561,-0.753 -0.929,-1.004c-0.384,-0.251 -0.853,-0.376 -1.404,-0.376c-1.054,0.034 -1.79,0.493 -2.208,1.38c-0.201,0.401 -0.343,0.844 -0.427,1.329c-0.1,0.486 -0.15,0.954 -0.15,1.405Zm5.92,5.043l-0.049,0c-1.038,1.188 -2.359,1.773 -3.965,1.756c-1.956,-0.033 -3.353,-0.727 -4.189,-2.082c-0.837,-1.321 -1.247,-2.893 -1.23,-4.717c-0.017,-1.839 0.393,-3.412 1.23,-4.716c0.836,-1.305 2.233,-1.974 4.189,-2.007c1.623,0 2.911,0.602 3.863,1.806l0.051,0l0,-7.401l3.362,0l0,18.816l-3.262,0l0,-1.455Z" style="fill:#fff;fill-rule:nonzero;"/>
        <path d="M204.08,63.517c0,0.536 0.21,0.928 0.628,1.179c0.384,0.268 0.886,0.402 1.505,0.402c1.037,-0.017 1.823,-0.402 2.358,-1.155c0.486,-0.752 0.719,-1.638 0.704,-2.659l-1.457,0c-0.184,0 -0.376,0 -0.576,0c-0.2,0 -0.402,0.017 -0.602,0.05c-0.435,0.051 -0.844,0.151 -1.229,0.301c-0.386,0.151 -0.696,0.377 -0.929,0.678c-0.268,0.301 -0.402,0.702 -0.402,1.204Zm-1.805,-8.505c1.437,-0.635 2.935,-0.961 4.491,-0.978c3.763,-0.051 5.619,1.764 5.568,5.444l0,1.655c0,1.255 0.018,2.334 0.051,3.237c0.034,0.953 0.084,1.915 0.151,2.885l-2.961,0c-0.1,-0.786 -0.149,-1.43 -0.149,-1.932l-0.051,0c-0.402,0.703 -0.963,1.247 -1.682,1.631c-0.735,0.401 -1.505,0.602 -2.307,0.602c-1.172,-0.017 -2.199,-0.351 -3.087,-1.003c-0.937,-0.653 -1.413,-1.597 -1.429,-2.835c0,-0.97 0.217,-1.756 0.653,-2.359c0.399,-0.602 0.919,-1.045 1.554,-1.329c0.668,-0.318 1.38,-0.527 2.133,-0.628c0.77,-0.083 1.505,-0.125 2.208,-0.125l1.857,0c0,-1.037 -0.236,-1.764 -0.704,-2.183c-0.468,-0.401 -1.203,-0.602 -2.207,-0.602c-1.472,0.017 -2.801,0.486 -3.989,1.405l-0.1,-2.885Z" style="fill:#fff;fill-rule:nonzero;"/>
        <path d="M215.48,56.793l-2.483,0l0,-2.458l2.483,0l0,-2.584l3.363,-1.079l0,3.663l2.985,0l0,2.458l-2.985,0l0,6.021c-0.017,0.569 0.09,1.054 0.326,1.456c0.217,0.435 0.635,0.66 1.254,0.677c0.635,0 1.145,-0.117 1.531,-0.351l0.1,2.659c-0.669,0.201 -1.498,0.301 -2.484,0.301c-2.71,-0.067 -4.072,-1.463 -4.09,-4.189l0,-6.574Z" style="fill:#fff;fill-rule:nonzero;"/>
        <path d="M223.132,54.335l3.363,0l0,12.92l-3.363,0l0,-12.92Zm0,-5.57l3.363,0l0,3.211l-3.363,0l0,-3.211Z" style="fill:#fff;fill-rule:nonzero;"/>
        <path d="M231.576,60.481c0,0.251 0.015,0.502 0.049,0.753c0.033,0.285 0.076,0.552 0.125,0.803c0.1,0.535 0.269,1.02 0.502,1.455c0.251,0.435 0.586,0.778 1.003,1.029c0.402,0.284 0.92,0.426 1.557,0.426c0.652,0 1.195,-0.134 1.63,-0.402c0.418,-0.25 0.753,-0.593 1.004,-1.028c0.251,-0.435 0.417,-0.92 0.502,-1.455c0.082,-0.518 0.125,-1.045 0.125,-1.581c0,-1.036 -0.261,-1.931 -0.778,-2.684c-0.553,-0.753 -1.38,-1.137 -2.483,-1.154c-1.07,0.017 -1.874,0.41 -2.409,1.179c-0.553,0.753 -0.827,1.639 -0.827,2.659Zm-3.513,0.402c0.016,-2.158 0.669,-3.839 1.956,-5.043c1.255,-1.187 2.852,-1.789 4.793,-1.806c1.973,0.017 3.587,0.619 4.841,1.806c1.272,1.204 1.915,2.885 1.933,5.043c0,1.89 -0.586,3.462 -1.757,4.716c-1.172,1.272 -2.844,1.924 -5.017,1.957c-2.143,-0.033 -3.797,-0.685 -4.969,-1.957c-1.188,-1.254 -1.78,-2.826 -1.78,-4.716Z" style="fill:#fff;fill-rule:nonzero;"/>
        <path d="M243.046,54.335l3.185,0l0,1.756l0.051,0c1.07,-1.388 2.483,-2.074 4.239,-2.057c1.521,0.017 2.642,0.493 3.362,1.43c0.686,0.937 1.029,2.149 1.029,3.638l0,8.153l-3.362,0l0,-6.899c0,-0.418 -0.009,-0.844 -0.025,-1.28c-0.018,-0.435 -0.1,-0.827 -0.251,-1.179c-0.118,-0.384 -0.325,-0.694 -0.627,-0.928c-0.318,-0.217 -0.745,-0.326 -1.28,-0.326c-0.602,0 -1.088,0.142 -1.454,0.426c-0.369,0.285 -0.671,0.644 -0.904,1.079c-0.218,0.435 -0.369,0.895 -0.451,1.38c-0.102,0.502 -0.151,0.97 -0.151,1.405l0,6.322l-3.361,0l0,-12.92Z" style="fill:#fff;fill-rule:nonzero;"/>
        <rect x="120" y="0" width="1" height="72" style="fill:#fff;"/>
        <path d="M25.564,66.347c-2.621,0 -4.381,-2.15 -4.381,-5.352c0,-3.201 1.76,-5.352 4.381,-5.352c2.62,0 4.381,2.151 4.381,5.352c0,3.202 -1.761,5.352 -4.381,5.352Zm0,-11.959c-4.476,0 -6.063,3.558 -6.063,6.607c0,3.049 1.587,6.608 6.063,6.608c4.476,0 6.063,-3.559 6.063,-6.608c0,-3.049 -1.587,-6.607 -6.063,-6.607Z" style="fill:#fff;fill-rule:nonzero;"/>
        <path d="M34.537,56.708l0,-2.069l-1.426,0l0.001,12.616l1.527,0l0,-6.233l-0.002,-0.08c0.002,-2.325 0.661,-5.103 3.798,-5.103l0.477,0.022l0.005,-0.049l0.077,-1.472l-0.178,-0.001c-2.119,0 -3.555,0.8 -4.279,2.369Z" style="fill:#fff;fill-rule:nonzero;"/>
        <path d="M65.564,57.098c-1.052,-0.347 -1.822,-0.548 -3.079,-0.548c-0.925,0 -2.028,0.324 -2.028,1.421c0,2.043 5.979,0.748 5.979,5.38c0,2.991 -2.745,4.188 -5.543,4.188c-1.31,0 -2.644,-0.224 -3.901,-0.548l0.205,-2.742c1.078,0.523 2.207,0.847 3.387,0.847c0.874,0 2.259,-0.324 2.259,-1.569c0,-2.517 -5.979,-0.798 -5.979,-5.432c0,-2.765 2.489,-3.987 5.183,-3.987c1.618,0 2.671,0.25 3.748,0.474l-0.231,2.516Z" style="fill:#fff;fill-rule:nonzero;"/>
        <rect x="81.578" y="54.423" width="3.44" height="12.833" style="fill:#fff;"/>
        <path d="M106.527,57.098c-1.052,-0.347 -1.822,-0.548 -3.079,-0.548c-0.926,0 -2.028,0.324 -2.028,1.421c0,2.043 5.979,0.748 5.979,5.38c0,2.991 -2.745,4.188 -5.543,4.188c-1.309,0 -2.643,-0.224 -3.901,-0.548l0.205,-2.742c1.078,0.523 2.208,0.847 3.388,0.847c0.873,0 2.259,-0.324 2.259,-1.569c0,-2.517 -5.98,-0.798 -5.98,-5.432c0,-2.765 2.489,-3.987 5.185,-3.987c1.616,0 2.667,0.25 3.746,0.474l-0.231,2.516Z" style="fill:#fff;fill-rule:nonzero;"/>
        <path d="M74.86,60.175l4.872,-5.752l-4.055,0l-4.106,5.134l-0.051,0l0,-12.039l-3.44,1.051l0,18.687l3.44,0l0,-6.23l0.051,0l4.415,6.23l4.362,0l-5.488,-7.081Z" style="fill:#fff;fill-rule:nonzero;"/>
        <path d="M49.416,66.299c-3.538,0 -3.921,-3.743 -3.921,-5.352c0,-1.61 0.383,-5.352 3.921,-5.352c2.707,0 3.92,2.687 3.92,5.352c0,2.665 -1.213,5.352 -3.92,5.352Zm5.385,-18.077l-1.465,0.449l0,7.801c-0.318,-0.534 -1.509,-2.166 -4.178,-2.133c-4.416,0.056 -5.343,3.623 -5.343,6.608c0,4.075 2.047,6.608 5.344,6.608c1.964,0 3.292,-0.723 4.177,-2.256l0,1.956l1.527,0l0,-19.052l-0.062,0.019Z" style="fill:#fff;fill-rule:nonzero;"/>
        <path d="M42.052,48.224l-1.465,0.446l0,18.586l1.527,0l0,-19.052l-0.062,0.02Z" style="fill:#fff;fill-rule:nonzero;"/>
        <path d="M87.236,48.569l0,18.687l3.439,0l0,-19.738l-3.439,1.051Z" style="fill:#fff;fill-rule:nonzero;"/>
        <path d="M92.656,48.569l-0.002,0l0,18.687l3.44,0l0,-19.738l-3.438,1.051Z" style="fill:#fff;fill-rule:nonzero;"/>
        <path d="M85.285,49.633c0,-1.059 -0.858,-1.916 -1.915,-1.916c-1.057,0 -1.915,0.857 -1.915,1.916c0,1.057 0.858,1.915 1.915,1.915c1.057,0 1.915,-0.858 1.915,-1.915Z" style="fill:#fff;fill-rule:nonzero;"/>
        <path d="M1.639,54.638l-1.639,0l0.02,0.063c0.079,0.238 4.11,12.41 4.148,12.522l0.011,0.033l1.885,0c0,0 3.546,-10.923 3.567,-10.989l0.116,0c0.023,0.066 3.568,10.989 3.568,10.989l1.887,0l4.28,-12.618l-1.522,0c0,0 -3.597,10.923 -3.619,10.988l-0.116,0c-0.021,-0.066 -3.464,-10.988 -3.464,-10.988l-1.886,0c0,0 -3.623,10.923 -3.645,10.988l-0.116,0c-0.021,-0.067 -3.439,-10.988 -3.439,-10.988l-0.036,0Z" style="fill:#fff;fill-rule:nonzero;"/>
        <path d="M78.494,26.514c0,0 6.039,-1.069 8.015,-5.87c0,0 35.16,7.202 14.404,25.957c0,0 7.703,-7.252 3.401,-13.054c0,0 2.401,7.202 -7.002,12.053c0,0 20.392,-14.484 -18.818,-19.086Z" style="fill:#fff;fill-rule:nonzero;"/>
        <path d="M97.758,23.887c2.459,1.216 4.181,2.412 5.187,3.197c0.442,-12.588 -8.583,-19.625 -8.583,-19.625c-0.263,0.807 -1.051,1.707 -2.176,2.119c-1.125,0.413 -1.801,1.763 -1.801,1.763c4.411,3.668 6.53,8.148 7.373,12.546Z" style="fill:#fff;fill-rule:nonzero;"/>
        <path d="M85.576,21.536c0.533,-0.796 0.682,-1.342 0.682,-1.342c2.324,0.412 4.409,0.957 6.267,1.566c-3.852,-10.984 -11.017,-16.996 -11.017,-16.996c-0.2,0.576 -2.3,1.626 -3.726,2.251c-1.425,0.625 -1.05,3.276 -1.05,3.276c3.918,3.237 6.768,7.2 8.844,11.245Z" style="fill:#fff;fill-rule:nonzero;"/>
        <path d="M100.315,33.703c-0.485,5.419 -3.703,11.172 -3.703,11.172c2.272,-3.456 3.825,-6.701 4.829,-9.724c-0.281,-0.511 -0.661,-0.993 -1.126,-1.448Z" style="fill:#fff;fill-rule:nonzero;"/>
        <path d="M99.893,33.318c-0.53,-0.456 -1.143,-0.883 -1.822,-1.282c-0.565,5.831 -2.509,10.214 -2.509,10.214c1.125,-1.276 1.988,-3.339 1.988,-3.339c0.037,1.463 -1.163,4.352 -1.163,4.352c2.065,-3.318 3.053,-7.35 3.506,-9.945Z" style="fill:#fff;fill-rule:nonzero;"/>
        <path d="M87.69,44.671c-1.25,-0.674 -3.063,-1.39 -6.788,-4.275c2.82,2.122 7.528,3.479 7.528,3.479c-10.395,-5.276 -12.661,-10.06 -12.661,-10.06c-1.001,-0.032 -1.605,0.602 -2,0.82c-0.397,0.217 -1.478,0.199 -1.478,0.199c3.962,6.387 15.399,9.837 15.399,9.837Z" style="fill:#fff;fill-rule:nonzero;"/>
        <path d="M83.04,27.476c-3.454,-0.572 -5.99,-0.793 -5.99,-0.793c1.38,-0.347 2.554,-0.769 3.56,-1.227c-4.862,-3.541 -9.705,-4.412 -9.705,-4.412c0,0 -0.9,0.3 -1.025,1.8c-0.125,1.501 -1.275,1.701 -1.275,1.701c18.155,4.851 20.88,19.805 20.88,19.805c-1.238,-6.752 -3.863,-11.066 -3.863,-11.066c2.775,2.851 4.688,10.091 4.688,10.091c-0.616,-7.483 -3.719,-12.529 -7.27,-15.899Z" style="fill:#fff;fill-rule:nonzero;"/>
        <path d="M88.473,28.558c2.614,8.064 2.663,14.892 2.663,14.892c1.934,-3.751 1.425,-12.379 1.425,-12.379c1.801,3.526 1.576,13.129 1.576,13.129c0.923,-5.046 0.959,-9.661 0.429,-13.814c-1.917,-0.735 -4.024,-1.338 -6.093,-1.828Z" style="fill:#fff;fill-rule:nonzero;"/>
    </g>
</svg>
