<?xml version="1.0" encoding="UTF-8"?>
<!DOCTYPE svg PUBLIC "-//W3C//DTD SVG 1.1//EN" "http://www.w3.org/Graphics/SVG/1.1/DTD/svg11.dtd">
<svg width="255px" height="72px" viewBox="0 0 1301 367" version="1.1" xmlns="http://www.w3.org/2000/svg" xmlns:xlink="http://www.w3.org/1999/xlink" xml:space="preserve" xmlns:serif="http://www.serif.com/" style="fill-rule:evenodd;clip-rule:evenodd;stroke-linejoin:round;stroke-miterlimit:1.41421;">
    <g>
        <path d="M683.456,253.619l49.664,0l0,14.08l-31.744,0l0,22.016l30.208,0l0,14.08l-30.208,0l0,39.168l-17.92,0l0,-89.344Z" style="fill:#fff;fill-rule:nonzero;"/>
        <path d="M754.342,308.403c0,1.279 0.084,2.56 0.256,3.84c0.17,1.452 0.384,2.815 0.64,4.096c0.512,2.732 1.364,5.206 2.56,7.423c1.28,2.22 2.986,3.968 5.12,5.249c2.048,1.452 4.692,2.175 7.936,2.175c3.328,0 6.1,-0.681 8.32,-2.048c2.132,-1.279 3.84,-3.027 5.12,-5.248c1.28,-2.217 2.132,-4.691 2.56,-7.423c0.426,-2.644 0.64,-5.332 0.64,-8.064c0,-5.29 -1.324,-9.856 -3.968,-13.696c-2.816,-3.84 -7.04,-5.802 -12.672,-5.888c-5.462,0.086 -9.558,2.092 -12.288,6.016c-2.816,3.84 -4.224,8.364 -4.224,13.568Zm-17.92,2.048c0.084,-11.008 3.412,-19.584 9.984,-25.729c6.4,-6.057 14.548,-9.129 24.448,-9.215c10.068,0.086 18.304,3.158 24.704,9.215c6.484,6.145 9.77,14.721 9.856,25.729c0,9.644 -2.988,17.664 -8.96,24.063c-5.974,6.487 -14.508,9.813 -25.6,9.985c-10.924,-0.172 -19.372,-3.498 -25.344,-9.985c-6.06,-6.399 -9.088,-14.419 -9.088,-24.063Z" style="fill:#fff;fill-rule:nonzero;"/>
        <path d="M873.163,342.963l-16.256,0l0,-8.96l-0.256,0c-5.376,6.828 -12.588,10.324 -21.632,10.496c-7.766,-0.086 -13.398,-2.561 -16.896,-7.424c-3.67,-4.778 -5.504,-10.922 -5.504,-18.433l0,-41.599l17.152,0l0,35.2c0,0.939 0.084,1.92 0.257,2.943c0,1.025 0.042,2.093 0.127,3.2c0.17,2.22 0.554,4.311 1.152,6.273c0.768,1.878 1.876,3.414 3.328,4.607c1.536,1.281 3.626,1.92 6.272,1.92c3.156,0 5.76,-0.809 7.809,-2.431c1.961,-1.451 3.455,-3.285 4.479,-5.504c1.194,-2.218 1.962,-4.565 2.304,-7.04c0.34,-2.474 0.512,-4.779 0.512,-6.912l0,-32.256l17.152,0l0,65.92Z" style="fill:#fff;fill-rule:nonzero;"/>
        <path d="M884.554,277.043l16.256,0l0,8.96l0.257,0c5.46,-7.082 12.671,-10.58 21.631,-10.496c7.765,0.086 13.482,2.517 17.152,7.296c3.498,4.78 5.248,10.965 5.248,18.56l0,41.6l-17.152,0l0,-35.201c0,-2.131 -0.043,-4.307 -0.127,-6.527c-0.087,-2.219 -0.513,-4.224 -1.281,-6.016c-0.598,-1.962 -1.664,-3.541 -3.199,-4.737c-1.623,-1.107 -3.799,-1.663 -6.529,-1.663c-3.072,0 -5.548,0.726 -7.424,2.176c-1.878,1.452 -3.414,3.286 -4.607,5.504c-1.111,2.22 -1.878,4.565 -2.305,7.04c-0.511,2.559 -0.768,4.95 -0.768,7.168l0,32.256l-17.152,0l0,-65.92Z" style="fill:#fff;fill-rule:nonzero;"/>
        <path d="M970.774,309.81c-0.086,4.781 0.938,9.473 3.072,14.08c1.108,2.048 2.602,3.756 4.48,5.121c1.792,1.452 4.096,2.175 6.912,2.175c2.986,0 5.418,-0.723 7.296,-2.175c1.962,-1.365 3.498,-3.073 4.608,-5.121c1.194,-2.131 2.048,-4.435 2.56,-6.912c0.428,-2.473 0.638,-4.863 0.638,-7.168c0,-4.947 -1.15,-9.599 -3.454,-13.951c-1.28,-2.133 -2.86,-3.841 -4.736,-5.12c-1.964,-1.28 -4.352,-1.92 -7.168,-1.92c-5.376,0.172 -9.132,2.518 -11.264,7.04c-1.023,2.048 -1.75,4.31 -2.176,6.783c-0.512,2.477 -0.768,4.865 -0.768,7.168Zm30.206,25.729l-0.25,0c-5.296,6.059 -12.035,9.044 -20.228,8.96c-9.984,-0.172 -17.11,-3.712 -21.376,-10.624c-4.268,-6.74 -6.358,-14.762 -6.272,-24.065c-0.086,-9.385 2.004,-17.407 6.272,-24.063c4.266,-6.656 11.392,-10.069 21.376,-10.24c8.277,0 14.848,3.072 19.708,9.215l0.26,0l0,-37.759l17.15,0l0,96l-16.64,0l0,-7.424Z" style="fill:#fff;fill-rule:nonzero;"/>
        <path d="M1041.21,323.89c0,2.733 1.071,4.737 3.201,6.017c1.96,1.365 4.52,2.048 7.68,2.048c5.29,-0.084 9.3,-2.048 12.03,-5.889c2.48,-3.84 3.67,-8.361 3.59,-13.567l-7.43,0c-0.94,0 -1.92,0 -2.94,0c-1.02,0 -2.05,0.086 -3.07,0.256c-2.22,0.256 -4.31,0.767 -6.27,1.536c-1.97,0.767 -3.551,1.92 -4.74,3.456c-1.37,1.536 -2.051,3.584 -2.051,6.143Zm-9.209,-43.391c7.329,-3.242 14.97,-4.906 22.91,-4.992c19.2,-0.256 28.67,9.004 28.41,27.776l0,8.447c0,6.401 0.09,11.905 0.26,16.513c0.17,4.863 0.43,9.771 0.77,14.72l-15.11,0c-0.51,-4.01 -0.76,-7.296 -0.76,-9.857l-0.26,0c-2.05,3.584 -4.91,6.359 -8.58,8.321c-3.75,2.047 -7.68,3.072 -11.77,3.072c-5.98,-0.086 -11.22,-1.792 -15.75,-5.12c-4.781,-3.328 -7.21,-8.149 -7.291,-14.464c0,-4.948 1.11,-8.96 3.331,-12.032c2.039,-3.073 4.69,-5.332 7.929,-6.785c3.411,-1.62 7.041,-2.687 10.881,-3.2c3.93,-0.426 7.68,-0.639 11.27,-0.639l9.47,0c0,-5.29 -1.2,-9.002 -3.59,-11.136c-2.39,-2.048 -6.14,-3.072 -11.26,-3.072c-7.51,0.085 -14.291,2.476 -20.35,7.168l-0.51,-14.72Z" style="fill:#fff;fill-rule:nonzero;"/>
        <path d="M1099.37,289.587l-12.67,0l0,-12.544l12.67,0l0,-13.184l17.16,-5.505l0,18.689l15.23,0l0,12.544l-15.23,0l0,30.719c-0.09,2.903 0.46,5.376 1.66,7.424c1.11,2.221 3.24,3.372 6.4,3.456c3.24,0 5.84,-0.595 7.81,-1.792l0.51,13.569c-3.41,1.024 -7.64,1.536 -12.67,1.536c-13.83,-0.342 -20.78,-7.466 -20.87,-21.376l0,-33.536Z" style="fill:#fff;fill-rule:nonzero;"/>
        <path d="M1138.41,277.043l17.16,0l0,65.92l-17.16,0l0,-65.92Zm0,-28.416l17.16,0l0,16.384l-17.16,0l0,-16.384Z" style="fill:#fff;fill-rule:nonzero;"/>
        <path d="M1181.49,308.403c0,1.279 0.08,2.56 0.25,3.84c0.17,1.452 0.39,2.815 0.64,4.096c0.51,2.732 1.37,5.206 2.56,7.423c1.28,2.22 2.99,3.968 5.12,5.249c2.05,1.452 4.69,2.175 7.94,2.175c3.33,0 6.1,-0.681 8.32,-2.048c2.13,-1.279 3.84,-3.027 5.12,-5.248c1.28,-2.217 2.13,-4.691 2.56,-7.423c0.42,-2.644 0.64,-5.332 0.64,-8.064c0,-5.29 -1.33,-9.856 -3.97,-13.696c-2.82,-3.84 -7.04,-5.802 -12.67,-5.888c-5.46,0.086 -9.56,2.092 -12.29,6.016c-2.82,3.84 -4.22,8.364 -4.22,13.568Zm-17.92,2.048c0.08,-11.008 3.41,-19.584 9.98,-25.729c6.4,-6.057 14.55,-9.129 24.45,-9.215c10.07,0.086 18.3,3.158 24.7,9.215c6.49,6.145 9.77,14.721 9.86,25.729c0,9.644 -2.99,17.664 -8.96,24.063c-5.98,6.487 -14.51,9.813 -25.6,9.985c-10.93,-0.172 -19.37,-3.498 -25.35,-9.985c-6.06,-6.399 -9.08,-14.419 -9.08,-24.063Z" style="fill:#fff;fill-rule:nonzero;"/>
        <path d="M1240.01,277.043l16.25,0l0,8.96l0.26,0c5.46,-7.082 12.67,-10.58 21.63,-10.496c7.76,0.086 13.48,2.517 17.15,7.296c3.5,4.78 5.25,10.965 5.25,18.56l0,41.6l-17.15,0l0,-35.201c0,-2.131 -0.05,-4.307 -0.13,-6.527c-0.09,-2.219 -0.51,-4.224 -1.28,-6.016c-0.6,-1.962 -1.66,-3.541 -3.2,-4.737c-1.62,-1.107 -3.8,-1.663 -6.53,-1.663c-3.07,0 -5.55,0.726 -7.42,2.176c-1.88,1.452 -3.42,3.286 -4.61,5.504c-1.11,2.22 -1.88,4.565 -2.3,7.04c-0.52,2.559 -0.77,4.95 -0.77,7.168l0,32.256l-17.15,0l0,-65.92Z" style="fill:#fff;fill-rule:nonzero;"/>
        <rect x="613.63" y="0.157" width="2.389" height="366.843" style="fill:#fff;fill-rule:nonzero;"/>
        <path d="M130.425,338.331c-13.371,0 -22.351,-10.969 -22.351,-27.305c0,-16.334 8.98,-27.307 22.351,-27.307c13.37,0 22.355,10.973 22.355,27.307c0,16.336 -8.985,27.305 -22.355,27.305Zm0,-61.015c-22.833,0 -30.932,18.154 -30.932,33.71c0,15.553 8.099,33.71 30.932,33.71c22.837,0 30.937,-18.157 30.937,-33.71c0,-15.556 -8.1,-33.71 -30.937,-33.71Z" style="fill:#fff;fill-rule:nonzero;"/>
        <path d="M176.206,289.152l0,-10.559l-7.276,0l0.008,64.371l7.789,0l0,-31.802l-0.012,-0.411c0.012,-11.861 3.374,-26.035 19.377,-26.035l2.434,0.114l0.029,-0.252l0.39,-7.508l-0.906,-0.005c-10.812,0 -18.137,4.082 -21.833,12.087Z" style="fill:#fff;fill-rule:nonzero;"/>
        <path d="M334.506,291.14c-5.37,-1.771 -9.297,-2.797 -15.712,-2.797c-4.716,0 -10.343,1.657 -10.343,7.251c0,10.427 30.504,3.815 30.504,27.45c0,15.26 -14.008,21.366 -28.279,21.366c-6.687,0 -13.491,-1.141 -19.903,-2.795l1.045,-13.99c5.497,2.667 11.258,4.324 17.277,4.324c4.461,0 11.53,-1.657 11.53,-8.007c0,-12.841 -30.509,-4.07 -30.509,-27.715c0,-14.104 12.701,-20.342 26.447,-20.342c8.252,0 13.624,1.277 19.118,2.419l-1.175,12.836Z" style="fill:#fff;fill-rule:nonzero;"/>
        <rect x="416.207" y="277.493" width="17.551" height="65.471" style="fill:#fff;fill-rule:nonzero;"/>
        <path d="M543.496,291.14c-5.367,-1.771 -9.294,-2.797 -15.709,-2.797c-4.722,0 -10.345,1.657 -10.345,7.251c0,10.427 30.503,3.815 30.503,27.45c0,15.26 -14.005,21.366 -28.278,21.366c-6.682,0 -13.486,-1.141 -19.904,-2.795l1.048,-13.99c5.497,2.667 11.261,4.324 17.282,4.324c4.454,0 11.525,-1.657 11.525,-8.007c0,-12.841 -30.508,-4.07 -30.508,-27.715c0,-14.104 12.7,-20.342 26.453,-20.342c8.247,0 13.609,1.277 19.111,2.419l-1.178,12.836Z" style="fill:#fff;fill-rule:nonzero;"/>
        <path d="M381.934,306.839l24.857,-29.346l-20.69,0l-20.947,26.192l-0.262,0l0,-61.42l-17.549,5.361l0,95.339l17.549,0l0,-31.782l0.262,0l22.524,31.782l22.255,0l-27.999,-36.126Z" style="fill:#fff;fill-rule:nonzero;"/>
        <path d="M252.116,338.084c-18.048,0 -20.002,-19.094 -20.002,-27.303c0,-8.214 1.954,-27.308 20.002,-27.308c13.816,0 20.004,13.711 20.004,27.308c0,13.592 -6.188,27.303 -20.004,27.303Zm27.479,-92.226l-7.475,2.288l0,39.799c-1.625,-2.723 -7.703,-11.049 -21.317,-10.882c-22.531,0.287 -27.262,18.488 -27.262,33.718c0,20.79 10.447,33.713 27.267,33.713c10.017,0 16.793,-3.691 21.312,-11.513l0,9.983l7.79,0l0,-97.203l-0.315,0.097Z" style="fill:#fff;fill-rule:nonzero;"/>
        <path d="M214.547,245.865l-7.476,2.278l0,94.823l7.792,0l0,-97.204l-0.316,0.103Z" style="fill:#fff;fill-rule:nonzero;"/>
        <path d="M445.077,247.626l0,95.339l17.543,0l0,-100.702l-17.543,5.363Z" style="fill:#fff;fill-rule:nonzero;"/>
        <path d="M472.729,247.626l-0.011,0l0,95.339l17.552,0l0,-100.702l-17.541,5.363Z" style="fill:#fff;fill-rule:nonzero;"/>
        <path d="M435.123,253.053c0,-5.402 -4.382,-9.774 -9.774,-9.774c-5.392,0 -9.769,4.372 -9.769,9.774c0,5.397 4.377,9.774 9.769,9.774c5.392,0 9.774,-4.377 9.774,-9.774Z" style="fill:#fff;fill-rule:nonzero;"/>
        <path d="M8.363,278.592l-8.363,0l0.104,0.321c0.4,1.213 20.968,63.316 21.159,63.883l0.056,0.169l9.621,0c0,0 18.088,-55.725 18.197,-56.065l0.594,0c0.113,0.34 18.2,56.065 18.2,56.065l9.627,0l21.84,-64.373l-7.767,0c0,0 -18.35,55.727 -18.462,56.059l-0.596,0c-0.105,-0.335 -17.672,-56.059 -17.672,-56.059l-9.623,0c0,0 -18.48,55.727 -18.595,56.059l-0.594,0c-0.104,-0.342 -17.543,-56.059 -17.543,-56.059l-0.183,0Z" style="fill:#fff;fill-rule:nonzero;"/>
        <path d="M400.473,135.102c0,0 30.81,-5.453 40.895,-29.949c0,0 179.384,36.744 73.488,132.432c0,0 39.297,-37 17.351,-66.6c0,0 12.248,36.744 -35.723,61.494c0,0 104.038,-73.899 -96.011,-97.377Z" style="fill:#fff;fill-rule:nonzero;"/>
        <path d="M498.759,121.701c12.546,6.205 21.329,12.303 26.462,16.308c2.254,-64.222 -43.791,-100.124 -43.791,-100.124c-1.339,4.116 -5.359,8.708 -11.101,10.812c-5.739,2.106 -9.187,8.995 -9.187,8.995c22.506,18.715 33.313,41.568 37.617,64.009Z" style="fill:#fff;fill-rule:nonzero;"/>
        <path d="M436.606,109.703c2.718,-4.06 3.48,-6.847 3.48,-6.847c11.856,2.106 22.496,4.884 31.972,7.991c-19.654,-56.04 -56.206,-86.71 -56.206,-86.71c-1.021,2.935 -11.738,8.292 -19.011,11.484c-7.271,3.189 -5.359,16.712 -5.359,16.712c19.989,16.517 34.531,36.734 45.124,57.37Z" style="fill:#fff;fill-rule:nonzero;"/>
        <path d="M511.804,171.78c-2.474,27.648 -18.892,57 -18.892,57c11.592,-17.632 19.515,-34.186 24.638,-49.613c-1.438,-2.608 -3.376,-5.067 -5.746,-7.387Z" style="fill:#fff;fill-rule:nonzero;"/>
        <path d="M509.651,169.814c-2.704,-2.323 -5.831,-4.501 -9.296,-6.538c-2.881,29.749 -12.803,52.11 -12.803,52.11c5.742,-6.509 10.142,-17.034 10.142,-17.034c0.192,7.464 -5.932,22.201 -5.932,22.201c10.534,-16.924 15.575,-37.495 17.889,-50.739Z" style="fill:#fff;fill-rule:nonzero;"/>
        <path d="M447.393,227.737c-6.378,-3.435 -15.627,-7.091 -34.635,-21.809c14.386,10.829 38.409,17.75 38.409,17.75c-53.037,-26.92 -64.599,-51.326 -64.599,-51.326c-5.105,-0.165 -8.184,3.074 -10.204,4.184c-2.022,1.109 -7.537,1.014 -7.537,1.014c20.215,32.589 78.566,50.187 78.566,50.187Z" style="fill:#fff;fill-rule:nonzero;"/>
        <path d="M423.668,140.01c-17.623,-2.918 -30.564,-4.047 -30.564,-4.047c7.044,-1.769 13.035,-3.919 18.163,-6.26c-24.802,-18.064 -49.513,-22.508 -49.513,-22.508c0,0 -4.592,1.529 -5.231,9.185c-0.634,7.655 -6.504,8.676 -6.504,8.676c92.625,24.75 106.53,101.044 106.53,101.044c-6.316,-34.447 -19.711,-56.455 -19.711,-56.455c14.162,14.544 23.921,51.481 23.921,51.481c-3.142,-38.179 -18.976,-63.921 -37.091,-81.116Z" style="fill:#fff;fill-rule:nonzero;"/>
        <path d="M451.385,145.529c13.336,41.144 13.587,75.979 13.587,75.979c9.868,-19.134 7.271,-63.154 7.271,-63.154c9.187,17.99 8.038,66.982 8.038,66.982c4.711,-25.744 4.894,-49.288 2.19,-70.477c-9.779,-3.749 -20.53,-6.827 -31.086,-9.33Z" style="fill:#fff;fill-rule:nonzero;"/>
    </g>
</svg>
