<?xml version="1.0" encoding="UTF-8"?>
<!DOCTYPE svg PUBLIC "-//W3C//DTD SVG 1.1//EN" "http://www.w3.org/Graphics/SVG/1.1/DTD/svg11.dtd">
<svg width="260px" height="30px" viewBox="0 0 260 30" version="1.1" xmlns="http://www.w3.org/2000/svg" xmlns:xlink="http://www.w3.org/1999/xlink" xml:space="preserve" xmlns:serif="http://www.serif.com/" style="fill-rule:evenodd;clip-rule:evenodd;stroke-linejoin:round;stroke-miterlimit:1.41421;">
    <g>
        <path d="M136.586,7.33l9.925,0l0,2.814l-6.344,0l0,4.399l6.037,0l0,2.814l-6.037,0l0,7.828l-3.581,0l0,-17.855Z" style="fill:#fff;fill-rule:nonzero;"/>
        <path d="M150.752,18.278c0,0.256 0.017,0.512 0.052,0.768c0.034,0.29 0.076,0.562 0.127,0.818c0.103,0.546 0.273,1.04 0.512,1.484c0.256,0.443 0.597,0.793 1.023,1.049c0.41,0.29 0.938,0.434 1.586,0.434c0.665,0 1.219,-0.136 1.663,-0.409c0.426,-0.256 0.767,-0.605 1.023,-1.049c0.256,-0.443 0.426,-0.937 0.512,-1.483c0.085,-0.529 0.128,-1.066 0.128,-1.612c0,-1.057 -0.265,-1.97 -0.793,-2.737c-0.563,-0.767 -1.407,-1.159 -2.533,-1.177c-1.091,0.018 -1.91,0.418 -2.455,1.203c-0.563,0.767 -0.845,1.671 -0.845,2.711Zm-3.581,0.41c0.017,-2.2 0.682,-3.914 1.995,-5.142c1.279,-1.211 2.908,-1.825 4.886,-1.842c2.012,0.017 3.658,0.631 4.937,1.842c1.296,1.228 1.953,2.942 1.97,5.142c0,1.927 -0.597,3.53 -1.791,4.808c-1.194,1.297 -2.899,1.962 -5.116,1.996c-2.183,-0.034 -3.871,-0.699 -5.065,-1.996c-1.211,-1.278 -1.816,-2.881 -1.816,-4.808Z" style="fill:#fff;fill-rule:nonzero;"/>
        <path d="M174.498,25.185l-3.248,0l0,-1.791l-0.051,0c-1.075,1.365 -2.516,2.064 -4.324,2.098c-1.552,-0.017 -2.677,-0.512 -3.376,-1.484c-0.734,-0.955 -1.1,-2.182 -1.1,-3.683l0,-8.314l3.428,0l0,7.035c0,0.187 0.016,0.383 0.051,0.588c0,0.204 0.008,0.418 0.025,0.639c0.034,0.444 0.111,0.862 0.231,1.254c0.153,0.375 0.375,0.682 0.665,0.921c0.307,0.255 0.724,0.383 1.253,0.383c0.631,0 1.151,-0.161 1.561,-0.486c0.392,-0.289 0.69,-0.656 0.895,-1.1c0.238,-0.443 0.392,-0.912 0.46,-1.407c0.068,-0.494 0.103,-0.954 0.103,-1.381l0,-6.446l3.427,0l0,13.174Z" style="fill:#fff;fill-rule:nonzero;"/>
        <path d="M176.775,12.011l3.249,0l0,1.791l0.051,0c1.091,-1.416 2.532,-2.115 4.323,-2.098c1.552,0.017 2.694,0.503 3.428,1.458c0.699,0.955 1.048,2.192 1.048,3.709l0,8.314l-3.427,0l0,-7.035c0,-0.426 -0.009,-0.861 -0.026,-1.304c-0.017,-0.444 -0.102,-0.845 -0.256,-1.203c-0.119,-0.392 -0.332,-0.707 -0.639,-0.946c-0.324,-0.222 -0.759,-0.333 -1.305,-0.333c-0.614,0 -1.109,0.145 -1.484,0.435c-0.375,0.291 -0.682,0.657 -0.92,1.1c-0.222,0.444 -0.376,0.913 -0.461,1.407c-0.102,0.512 -0.153,0.989 -0.153,1.433l0,6.446l-3.428,0l0,-13.174Z" style="fill:#fff;fill-rule:nonzero;"/>
        <path d="M194.006,18.559c-0.018,0.956 0.187,1.894 0.613,2.814c0.222,0.41 0.52,0.751 0.896,1.024c0.358,0.29 0.818,0.434 1.381,0.434c0.597,0 1.083,-0.144 1.458,-0.434c0.392,-0.273 0.699,-0.614 0.921,-1.024c0.239,-0.426 0.409,-0.886 0.512,-1.381c0.085,-0.494 0.127,-0.972 0.127,-1.433c0,-0.988 -0.23,-1.918 -0.69,-2.788c-0.256,-0.426 -0.572,-0.767 -0.947,-1.023c-0.392,-0.256 -0.869,-0.384 -1.432,-0.384c-1.074,0.035 -1.825,0.504 -2.251,1.407c-0.205,0.41 -0.35,0.862 -0.435,1.356c-0.102,0.495 -0.153,0.972 -0.153,1.432Zm6.036,5.142l-0.05,0c-1.058,1.211 -2.405,1.808 -4.042,1.791c-1.996,-0.034 -3.42,-0.742 -4.272,-2.123c-0.853,-1.347 -1.271,-2.95 -1.254,-4.81c-0.017,-1.875 0.401,-3.478 1.254,-4.809c0.852,-1.33 2.276,-2.012 4.272,-2.046c1.654,0 2.967,0.614 3.938,1.842l0.052,0l0,-7.546l3.428,0l0,19.185l-3.326,0l0,-1.484Z" style="fill:#fff;fill-rule:nonzero;"/>
        <path d="M208.082,21.373c0,0.546 0.214,0.947 0.64,1.203c0.391,0.273 0.903,0.409 1.534,0.409c1.058,-0.017 1.859,-0.409 2.405,-1.177c0.495,-0.767 0.733,-1.671 0.717,-2.711l-1.485,0c-0.188,0 -0.383,0 -0.587,0c-0.204,0 -0.41,0.017 -0.614,0.051c-0.444,0.051 -0.861,0.153 -1.253,0.307c-0.394,0.153 -0.71,0.383 -0.947,0.69c-0.274,0.308 -0.41,0.717 -0.41,1.228Zm-1.84,-8.671c1.464,-0.648 2.991,-0.981 4.578,-0.998c3.837,-0.051 5.73,1.799 5.678,5.551l0,1.688c0,1.279 0.018,2.379 0.052,3.3c0.034,0.972 0.086,1.953 0.154,2.942l-3.02,0c-0.102,-0.802 -0.152,-1.458 -0.152,-1.97l-0.052,0c-0.41,0.716 -0.981,1.271 -1.715,1.663c-0.749,0.409 -1.535,0.614 -2.352,0.614c-1.195,-0.017 -2.242,-0.358 -3.147,-1.023c-0.956,-0.666 -1.441,-1.629 -1.458,-2.891c0,-0.989 0.222,-1.791 0.666,-2.405c0.408,-0.614 0.937,-1.065 1.585,-1.355c0.681,-0.324 1.407,-0.538 2.174,-0.64c0.786,-0.085 1.535,-0.128 2.253,-0.128l1.892,0c0,-1.057 -0.24,-1.799 -0.717,-2.225c-0.478,-0.409 -1.227,-0.614 -2.251,-0.614c-1.5,0.017 -2.856,0.495 -4.067,1.432l-0.101,-2.941Z" style="fill:#fff;fill-rule:nonzero;"/>
        <path d="M219.705,14.518l-2.532,0l0,-2.507l2.532,0l0,-2.635l3.429,-1.1l0,3.735l3.044,0l0,2.507l-3.044,0l0,6.139c-0.018,0.58 0.092,1.074 0.332,1.484c0.222,0.444 0.648,0.674 1.279,0.69c0.648,0 1.167,-0.119 1.561,-0.358l0.102,2.712c-0.682,0.205 -1.527,0.307 -2.532,0.307c-2.764,-0.068 -4.153,-1.492 -4.171,-4.272l0,-6.702Z" style="fill:#fff;fill-rule:nonzero;"/>
        <path d="M227.507,12.011l3.429,0l0,13.174l-3.429,0l0,-13.174Zm0,-5.679l3.429,0l0,3.274l-3.429,0l0,-3.274Z" style="fill:#fff;fill-rule:nonzero;"/>
        <path d="M236.116,18.278c0,0.256 0.016,0.512 0.05,0.768c0.034,0.29 0.078,0.562 0.128,0.818c0.102,0.546 0.274,1.04 0.512,1.484c0.256,0.443 0.597,0.793 1.023,1.049c0.41,0.29 0.937,0.434 1.587,0.434c0.665,0 1.219,-0.136 1.663,-0.409c0.425,-0.256 0.767,-0.605 1.023,-1.049c0.256,-0.443 0.425,-0.937 0.511,-1.483c0.084,-0.529 0.128,-1.066 0.128,-1.612c0,-1.057 -0.266,-1.97 -0.793,-2.737c-0.564,-0.767 -1.407,-1.159 -2.532,-1.177c-1.091,0.018 -1.911,0.418 -2.456,1.203c-0.564,0.767 -0.844,1.671 -0.844,2.711Zm-3.581,0.41c0.016,-2.2 0.682,-3.914 1.995,-5.142c1.279,-1.211 2.907,-1.825 4.886,-1.842c2.012,0.017 3.657,0.631 4.936,1.842c1.297,1.228 1.953,2.942 1.971,5.142c0,1.927 -0.598,3.53 -1.791,4.808c-1.195,1.297 -2.9,1.962 -5.116,1.996c-2.184,-0.034 -3.871,-0.699 -5.066,-1.996c-1.211,-1.278 -1.815,-2.881 -1.815,-4.808Z" style="fill:#fff;fill-rule:nonzero;"/>
        <path d="M247.811,12.011l3.248,0l0,1.791l0.052,0c1.091,-1.416 2.532,-2.115 4.323,-2.098c1.55,0.017 2.693,0.503 3.427,1.458c0.699,0.955 1.049,2.192 1.049,3.709l0,8.314l-3.427,0l0,-7.035c0,-0.426 -0.01,-0.861 -0.026,-1.304c-0.018,-0.444 -0.102,-0.845 -0.256,-1.203c-0.12,-0.392 -0.332,-0.707 -0.64,-0.946c-0.323,-0.222 -0.759,-0.333 -1.305,-0.333c-0.613,0 -1.109,0.145 -1.482,0.435c-0.376,0.291 -0.684,0.657 -0.922,1.1c-0.222,0.444 -0.375,0.913 -0.459,1.407c-0.104,0.512 -0.154,0.989 -0.154,1.433l0,6.446l-3.428,0l0,-13.174Z" style="fill:#fff;fill-rule:nonzero;"/>
        <rect x="122" y="0" width="1" height="30" style="fill:#fff;"/>
        <path d="M26.065,24.259c-2.672,0 -4.467,-2.192 -4.467,-5.457c0,-3.264 1.795,-5.457 4.467,-5.457c2.672,0 4.468,2.193 4.468,5.457c0,3.265 -1.796,5.457 -4.468,5.457Zm0,-12.193c-4.563,0 -6.182,3.628 -6.182,6.736c0,3.108 1.619,6.737 6.182,6.737c4.564,0 6.183,-3.629 6.183,-6.737c0,-3.108 -1.619,-6.736 -6.183,-6.736Z" style="fill:#fff;fill-rule:nonzero;"/>
        <path d="M35.214,14.431l0,-2.11l-1.454,0l0.002,12.864l1.556,0l0,-6.356l-0.002,-0.082c0.002,-2.37 0.674,-5.203 3.872,-5.203l0.487,0.023l0.005,-0.05l0.078,-1.501l-0.181,-0.001c-2.16,0 -3.624,0.816 -4.363,2.416Z" style="fill:#fff;fill-rule:nonzero;"/>
        <path d="M66.85,14.828c-1.073,-0.354 -1.858,-0.559 -3.14,-0.559c-0.943,0 -2.067,0.331 -2.067,1.449c0,2.084 6.096,0.763 6.096,5.486c0,3.05 -2.8,4.27 -5.652,4.27c-1.336,0 -2.696,-0.228 -3.977,-0.558l0.209,-2.796c1.098,0.533 2.25,0.864 3.452,0.864c0.892,0 2.305,-0.331 2.305,-1.6c0,-2.567 -6.097,-0.814 -6.097,-5.539c0,-2.819 2.538,-4.066 5.285,-4.066c1.649,0 2.723,0.256 3.821,0.484l-0.235,2.565Z" style="fill:#fff;fill-rule:nonzero;"/>
        <rect x="83.177" y="12.101" width="3.508" height="13.084" style="fill:#fff;"/>
        <path d="M108.616,14.828c-1.073,-0.354 -1.858,-0.559 -3.14,-0.559c-0.943,0 -2.067,0.331 -2.067,1.449c0,2.084 6.096,0.763 6.096,5.486c0,3.05 -2.799,4.27 -5.651,4.27c-1.336,0 -2.696,-0.228 -3.978,-0.558l0.209,-2.796c1.099,0.533 2.251,0.864 3.454,0.864c0.89,0 2.303,-0.331 2.303,-1.6c0,-2.567 -6.097,-0.814 -6.097,-5.539c0,-2.819 2.538,-4.066 5.287,-4.066c1.648,0 2.72,0.256 3.819,0.484l-0.235,2.565Z" style="fill:#fff;fill-rule:nonzero;"/>
        <path d="M76.328,17.966l4.968,-5.865l-4.135,0l-4.186,5.234l-0.053,0l0,-12.274l-3.507,1.071l0,19.053l3.507,0l0,-6.351l0.053,0l4.501,6.351l4.448,0l-5.596,-7.219Z" style="fill:#fff;fill-rule:nonzero;"/>
        <path d="M50.384,24.21c-3.606,0 -3.997,-3.816 -3.997,-5.456c0,-1.642 0.391,-5.458 3.997,-5.458c2.762,0 3.998,2.74 3.998,5.458c0,2.716 -1.236,5.456 -3.998,5.456Zm5.492,-18.431l-1.494,0.457l0,7.954c-0.325,-0.544 -1.539,-2.208 -4.26,-2.175c-4.503,0.057 -5.448,3.695 -5.448,6.739c0,4.154 2.088,6.737 5.449,6.737c2.002,0 3.356,-0.738 4.259,-2.301l0,1.995l1.557,0l0,-19.425l-0.063,0.019Z" style="fill:#fff;fill-rule:nonzero;"/>
        <path d="M42.876,5.78l-1.494,0.456l0,18.949l1.558,0l0,-19.425l-0.064,0.02Z" style="fill:#fff;fill-rule:nonzero;"/>
        <path d="M88.947,6.132l0,19.053l3.506,0l0,-20.125l-3.506,1.072Z" style="fill:#fff;fill-rule:nonzero;"/>
        <path d="M94.473,6.132l-0.002,0l0,19.053l3.508,0l0,-20.125l-3.506,1.072Z" style="fill:#fff;fill-rule:nonzero;"/>
        <path d="M86.958,7.217c0,-1.08 -0.876,-1.954 -1.954,-1.954c-1.077,0 -1.952,0.874 -1.952,1.954c0,1.078 0.875,1.953 1.952,1.953c1.078,0 1.954,-0.875 1.954,-1.953Z" style="fill:#fff;fill-rule:nonzero;"/>
        <path d="M1.671,12.32l-1.671,0l0.021,0.065c0.08,0.242 4.19,12.653 4.228,12.766l0.012,0.034l1.922,0c0,0 3.615,-11.136 3.637,-11.204l0.119,0c0.022,0.068 3.637,11.204 3.637,11.204l1.924,0l4.364,-12.865l-1.552,0c0,0 -3.667,11.137 -3.689,11.204l-0.12,0c-0.021,-0.067 -3.531,-11.204 -3.531,-11.204l-1.923,0c0,0 -3.694,11.137 -3.717,11.204l-0.118,0c-0.021,-0.069 -3.506,-11.204 -3.506,-11.204l-0.037,0Z" style="fill:#fff;fill-rule:nonzero;"/>
    </g>
</svg>
