<?xml version="1.0" encoding="UTF-8"?>
<!DOCTYPE svg PUBLIC "-//W3C//DTD SVG 1.1//EN" "http://www.w3.org/Graphics/SVG/1.1/DTD/svg11.dtd">
<svg width="1301px" height="150px" viewBox="0 0 1301 150" version="1.1" xmlns="http://www.w3.org/2000/svg" xmlns:xlink="http://www.w3.org/1999/xlink" xml:space="preserve" xmlns:serif="http://www.serif.com/" style="fill-rule:evenodd;clip-rule:evenodd;stroke-linejoin:round;stroke-miterlimit:1.41421;">
    <g>
        <path d="M683.456,36.62l49.664,0l0,14.08l-31.744,0l0,22.015l30.208,0l0,14.08l-30.208,0l0,39.168l-17.92,0l0,-89.343Z" style="fill:#fff;fill-rule:nonzero;"/>
        <path d="M754.342,91.404c0,1.279 0.084,2.559 0.256,3.84c0.17,1.452 0.384,2.815 0.64,4.095c0.512,2.733 1.364,5.206 2.56,7.424c1.28,2.22 2.986,3.968 5.12,5.248c2.048,1.452 4.692,2.176 7.936,2.176c3.328,0 6.1,-0.682 8.32,-2.048c2.132,-1.279 3.84,-3.027 5.12,-5.248c1.28,-2.218 2.132,-4.691 2.56,-7.424c0.426,-2.643 0.64,-5.332 0.64,-8.063c0,-5.29 -1.324,-9.857 -3.968,-13.697c-2.816,-3.839 -7.04,-5.801 -12.672,-5.887c-5.462,0.086 -9.558,2.091 -12.288,6.015c-2.816,3.84 -4.224,8.365 -4.224,13.569Zm-17.92,2.048c0.084,-11.008 3.412,-19.584 9.984,-25.729c6.4,-6.058 14.548,-9.13 24.448,-9.216c10.068,0.086 18.304,3.158 24.704,9.216c6.484,6.145 9.77,14.721 9.856,25.729c0,9.643 -2.988,17.664 -8.96,24.063c-5.974,6.486 -14.508,9.813 -25.6,9.984c-10.924,-0.171 -19.372,-3.498 -25.344,-9.984c-6.06,-6.399 -9.088,-14.42 -9.088,-24.063Z" style="fill:#fff;fill-rule:nonzero;"/>
        <path d="M873.163,125.963l-16.256,0l0,-8.96l-0.256,0c-5.376,6.828 -12.588,10.325 -21.632,10.496c-7.766,-0.086 -13.398,-2.56 -16.896,-7.423c-3.67,-4.779 -5.504,-10.922 -5.504,-18.433l0,-41.6l17.152,0l0,35.201c0,0.939 0.084,1.919 0.257,2.943c0,1.024 0.042,2.093 0.127,3.2c0.17,2.22 0.554,4.311 1.152,6.273c0.768,1.877 1.876,3.414 3.328,4.607c1.536,1.28 3.626,1.92 6.272,1.92c3.156,0 5.76,-0.81 7.809,-2.432c1.961,-1.45 3.455,-3.284 4.479,-5.504c1.194,-2.217 1.962,-4.564 2.304,-7.04c0.34,-2.473 0.512,-4.778 0.512,-6.912l0,-32.256l17.152,0l0,65.92Z" style="fill:#fff;fill-rule:nonzero;"/>
        <path d="M884.554,60.043l16.256,0l0,8.96l0.257,0c5.46,-7.082 12.671,-10.58 21.631,-10.496c7.765,0.086 13.482,2.518 17.152,7.296c3.498,4.78 5.248,10.966 5.248,18.561l0,41.599l-17.152,0l0,-35.2c0,-2.132 -0.043,-4.308 -0.127,-6.527c-0.087,-2.219 -0.513,-4.225 -1.281,-6.017c-0.598,-1.962 -1.664,-3.54 -3.199,-4.736c-1.623,-1.108 -3.799,-1.663 -6.529,-1.663c-3.072,0 -5.548,0.725 -7.424,2.175c-1.878,1.453 -3.414,3.287 -4.607,5.504c-1.111,2.22 -1.878,4.566 -2.305,7.04c-0.511,2.56 -0.768,4.951 -0.768,7.168l0,32.256l-17.152,0l0,-65.92Z" style="fill:#fff;fill-rule:nonzero;"/>
        <path d="M970.774,92.811c-0.086,4.78 0.938,9.473 3.072,14.08c1.108,2.048 2.602,3.756 4.48,5.12c1.792,1.452 4.096,2.176 6.912,2.176c2.986,0 5.418,-0.724 7.296,-2.176c1.962,-1.364 3.498,-3.072 4.608,-5.12c1.194,-2.132 2.048,-4.436 2.56,-6.912c0.428,-2.474 0.638,-4.863 0.638,-7.168c0,-4.947 -1.15,-9.6 -3.454,-13.951c-1.28,-2.133 -2.86,-3.841 -4.736,-5.12c-1.964,-1.281 -4.352,-1.92 -7.168,-1.92c-5.376,0.172 -9.132,2.517 -11.264,7.04c-1.023,2.048 -1.75,4.309 -2.176,6.783c-0.512,2.477 -0.768,4.864 -0.768,7.168Zm30.206,25.728l-0.25,0c-5.296,6.06 -12.035,9.044 -20.228,8.96c-9.984,-0.171 -17.11,-3.712 -21.376,-10.624c-4.268,-6.74 -6.358,-14.761 -6.272,-24.064c-0.086,-9.386 2.004,-17.407 6.272,-24.064c4.266,-6.656 11.392,-10.068 21.376,-10.24c8.277,0 14.848,3.072 19.708,9.216l0.26,0l0,-37.76l17.15,0l0,96l-16.64,0l0,-7.424Z" style="fill:#fff;fill-rule:nonzero;"/>
        <path d="M1041.21,106.891c0,2.732 1.071,4.736 3.201,6.017c1.96,1.365 4.52,2.047 7.68,2.047c5.29,-0.084 9.3,-2.047 12.03,-5.888c2.48,-3.84 3.67,-8.362 3.59,-13.568l-7.43,0c-0.94,0 -1.92,0 -2.94,0c-1.02,0 -2.05,0.086 -3.07,0.256c-2.22,0.256 -4.31,0.768 -6.27,1.536c-1.97,0.768 -3.551,1.92 -4.74,3.456c-1.37,1.537 -2.051,3.584 -2.051,6.144Zm-9.209,-43.392c7.329,-3.242 14.97,-4.906 22.91,-4.992c19.2,-0.256 28.67,9.004 28.41,27.777l0,8.447c0,6.4 0.09,11.904 0.26,16.513c0.17,4.863 0.43,9.771 0.77,14.719l-15.11,0c-0.51,-4.01 -0.76,-7.296 -0.76,-9.856l-0.26,0c-2.05,3.584 -4.91,6.358 -8.58,8.32c-3.75,2.048 -7.68,3.072 -11.77,3.072c-5.98,-0.086 -11.22,-1.792 -15.75,-5.12c-4.781,-3.328 -7.21,-8.148 -7.291,-14.464c0,-4.948 1.11,-8.96 3.331,-12.032c2.039,-3.072 4.69,-5.332 7.929,-6.784c3.411,-1.62 7.041,-2.688 10.881,-3.2c3.93,-0.426 7.68,-0.64 11.27,-0.64l9.47,0c0,-5.29 -1.2,-9.002 -3.59,-11.136c-2.39,-2.047 -6.14,-3.072 -11.26,-3.072c-7.51,0.086 -14.291,2.477 -20.35,7.168l-0.51,-14.72Z" style="fill:#fff;fill-rule:nonzero;"/>
        <path d="M1099.37,72.587l-12.67,0l0,-12.544l12.67,0l0,-13.183l17.16,-5.505l0,18.688l15.23,0l0,12.544l-15.23,0l0,30.72c-0.09,2.902 0.46,5.376 1.66,7.424c1.11,2.221 3.24,3.372 6.4,3.456c3.24,0 5.84,-0.596 7.81,-1.792l0.51,13.568c-3.41,1.025 -7.64,1.536 -12.67,1.536c-13.83,-0.341 -20.78,-7.465 -20.87,-21.376l0,-33.536Z" style="fill:#fff;fill-rule:nonzero;"/>
        <path d="M1138.41,60.043l17.16,0l0,65.92l-17.16,0l0,-65.92Zm0,-28.416l17.16,0l0,16.384l-17.16,0l0,-16.384Z" style="fill:#fff;fill-rule:nonzero;"/>
        <path d="M1181.49,91.404c0,1.279 0.08,2.559 0.25,3.84c0.17,1.452 0.39,2.815 0.64,4.095c0.51,2.733 1.37,5.206 2.56,7.424c1.28,2.22 2.99,3.968 5.12,5.248c2.05,1.452 4.69,2.176 7.94,2.176c3.33,0 6.1,-0.682 8.32,-2.048c2.13,-1.279 3.84,-3.027 5.12,-5.248c1.28,-2.218 2.13,-4.691 2.56,-7.424c0.42,-2.643 0.64,-5.332 0.64,-8.063c0,-5.29 -1.33,-9.857 -3.97,-13.697c-2.82,-3.839 -7.04,-5.801 -12.67,-5.887c-5.46,0.086 -9.56,2.091 -12.29,6.015c-2.82,3.84 -4.22,8.365 -4.22,13.569Zm-17.92,2.048c0.08,-11.008 3.41,-19.584 9.98,-25.729c6.4,-6.058 14.55,-9.13 24.45,-9.216c10.07,0.086 18.3,3.158 24.7,9.216c6.49,6.145 9.77,14.721 9.86,25.729c0,9.643 -2.99,17.664 -8.96,24.063c-5.98,6.486 -14.51,9.813 -25.6,9.984c-10.93,-0.171 -19.37,-3.498 -25.35,-9.984c-6.06,-6.399 -9.08,-14.42 -9.08,-24.063Z" style="fill:#fff;fill-rule:nonzero;"/>
        <path d="M1240.01,60.043l16.25,0l0,8.96l0.26,0c5.46,-7.082 12.67,-10.58 21.63,-10.496c7.76,0.086 13.48,2.518 17.15,7.296c3.5,4.78 5.25,10.966 5.25,18.561l0,41.599l-17.15,0l0,-35.2c0,-2.132 -0.05,-4.308 -0.13,-6.527c-0.09,-2.219 -0.51,-4.225 -1.28,-6.017c-0.6,-1.962 -1.66,-3.54 -3.2,-4.736c-1.62,-1.108 -3.8,-1.663 -6.53,-1.663c-3.07,0 -5.55,0.725 -7.42,2.175c-1.88,1.453 -3.42,3.287 -4.61,5.504c-1.11,2.22 -1.88,4.566 -2.3,7.04c-0.52,2.56 -0.77,4.951 -0.77,7.168l0,32.256l-17.15,0l0,-65.92Z" style="fill:#fff;fill-rule:nonzero;"/>
        <rect x="613.63" y="-0.842" width="2.389" height="150.842" style="fill:#fff;fill-rule:nonzero;"/>
        <path d="M130.425,121.331c-13.371,0 -22.351,-10.968 -22.351,-27.304c0,-16.334 8.98,-27.308 22.351,-27.308c13.37,0 22.355,10.974 22.355,27.308c0,16.336 -8.985,27.304 -22.355,27.304Zm0,-61.014c-22.833,0 -30.932,18.154 -30.932,33.71c0,15.552 8.099,33.71 30.932,33.71c22.837,0 30.937,-18.158 30.937,-33.71c0,-15.556 -8.1,-33.71 -30.937,-33.71Z" style="fill:#fff;fill-rule:nonzero;"/>
        <path d="M176.206,72.153l0,-10.56l-7.276,0l0.008,64.371l7.789,0l0,-31.802l-0.012,-0.411c0.012,-11.86 3.374,-26.035 19.377,-26.035l2.434,0.114l0.029,-0.252l0.39,-7.507l-0.906,-0.005c-10.812,0 -18.137,4.082 -21.833,12.087Z" style="fill:#fff;fill-rule:nonzero;"/>
        <path d="M334.506,74.141c-5.37,-1.771 -9.297,-2.798 -15.712,-2.798c-4.716,0 -10.343,1.657 -10.343,7.251c0,10.428 30.504,3.816 30.504,27.45c0,15.261 -14.008,21.367 -28.279,21.367c-6.687,0 -13.491,-1.141 -19.903,-2.795l1.045,-13.991c5.497,2.667 11.258,4.325 17.277,4.325c4.461,0 11.53,-1.658 11.53,-8.007c0,-12.841 -30.509,-4.071 -30.509,-27.715c0,-14.105 12.701,-20.343 26.447,-20.343c8.252,0 13.624,1.277 19.118,2.42l-1.175,12.836Z" style="fill:#fff;fill-rule:nonzero;"/>
        <rect x="416.207" y="60.494" width="17.551" height="65.47" style="fill:#fff;fill-rule:nonzero;"/>
        <path d="M543.496,74.141c-5.367,-1.771 -9.294,-2.798 -15.709,-2.798c-4.722,0 -10.345,1.657 -10.345,7.251c0,10.428 30.503,3.816 30.503,27.45c0,15.261 -14.005,21.367 -28.278,21.367c-6.682,0 -13.486,-1.141 -19.904,-2.795l1.048,-13.991c5.497,2.667 11.261,4.325 17.282,4.325c4.454,0 11.525,-1.658 11.525,-8.007c0,-12.841 -30.508,-4.071 -30.508,-27.715c0,-14.105 12.7,-20.343 26.453,-20.343c8.247,0 13.609,1.277 19.111,2.42l-1.178,12.836Z" style="fill:#fff;fill-rule:nonzero;"/>
        <path d="M381.934,89.839l24.857,-29.345l-20.69,0l-20.947,26.192l-0.262,0l0,-61.42l-17.549,5.36l0,95.339l17.549,0l0,-31.781l0.262,0l22.524,31.781l22.255,0l-27.999,-36.126Z" style="fill:#fff;fill-rule:nonzero;"/>
        <path d="M252.116,121.084c-18.048,0 -20.002,-19.093 -20.002,-27.302c0,-8.214 1.954,-27.308 20.002,-27.308c13.816,0 20.004,13.711 20.004,27.308c0,13.591 -6.188,27.302 -20.004,27.302Zm27.479,-92.225l-7.475,2.288l0,39.799c-1.625,-2.723 -7.703,-11.049 -21.317,-10.882c-22.531,0.287 -27.262,18.487 -27.262,33.718c0,20.79 10.447,33.713 27.267,33.713c10.017,0 16.793,-3.691 21.312,-11.513l0,9.982l7.79,0l0,-97.202l-0.315,0.097Z" style="fill:#fff;fill-rule:nonzero;"/>
        <path d="M214.547,28.866l-7.476,2.278l0,94.822l7.792,0l0,-97.203l-0.316,0.103Z" style="fill:#fff;fill-rule:nonzero;"/>
        <path d="M445.077,30.626l0,95.339l17.543,0l0,-100.701l-17.543,5.362Z" style="fill:#fff;fill-rule:nonzero;"/>
        <path d="M472.729,30.626l-0.011,0l0,95.339l17.552,0l0,-100.701l-17.541,5.362Z" style="fill:#fff;fill-rule:nonzero;"/>
        <path d="M435.123,36.054c0,-5.402 -4.382,-9.774 -9.774,-9.774c-5.392,0 -9.769,4.372 -9.769,9.774c0,5.397 4.377,9.774 9.769,9.774c5.392,0 9.774,-4.377 9.774,-9.774Z" style="fill:#fff;fill-rule:nonzero;"/>
        <path d="M8.363,61.592l-8.363,0l0.104,0.321c0.4,1.213 20.968,63.317 21.159,63.883l0.056,0.169l9.621,0c0,0 18.088,-55.724 18.197,-56.064l0.594,0c0.113,0.34 18.2,56.064 18.2,56.064l9.627,0l21.84,-64.373l-7.767,0c0,0 -18.35,55.728 -18.462,56.06l-0.596,0c-0.105,-0.335 -17.672,-56.06 -17.672,-56.06l-9.623,0c0,0 -18.48,55.728 -18.595,56.06l-0.594,0c-0.104,-0.342 -17.543,-56.06 -17.543,-56.06l-0.183,0Z" style="fill:#fff;fill-rule:nonzero;"/>
    </g>
</svg>
